<svg xmlns="http://www.w3.org/2000/svg" viewBox="0 0 256 256">
  <defs>
    <linearGradient id="grad" x1="0%" y1="0%" x2="100%" y2="100%">
      <stop offset="0%" style="stop-color:#FFB3D9;stop-opacity:1" />
      <stop offset="25%" style="stop-color:#FFD9B3;stop-opacity:1" />
      <stop offset="50%" style="stop-color:#FFFFB3;stop-opacity:1" />
      <stop offset="75%" style="stop-color:#B3FFD9;stop-opacity:1" />
      <stop offset="100%" style="stop-color:#B3D9FF;stop-opacity:1" />
    </linearGradient>
  </defs>
  <circle cx="128" cy="128" r="128" fill="url(#grad)"/>
  <path d="M128 75c-22 0-38 14-38 38 0 15 8 26 20 32v16c0 8 6 14 14 14h8c8 0 14-6 14-14v-16c12-6 20-17 20-32 0-24-16-38-38-38zm0 20c12 0 18 8 18 18 0 8-5 14-12 17l-6 3v28h-8v-28l-6-3c-7-3-12-9-12-17 0-10 6-18 18-18h8z" fill="#FFFFFF" opacity="0.95"/>
</svg>